<?xml version="1.0" encoding="UTF-8"?>
<svg width="142px" height="17px" viewBox="0 0 142 17" version="1.1" xmlns="http://www.w3.org/2000/svg" xmlns:xlink="http://www.w3.org/1999/xlink">
    <!-- Generator: Sketch 47.1 (45422) - http://www.bohemiancoding.com/sketch -->
    <title>top</title>
    <desc>Created with Sketch.</desc>
    <defs></defs>
    <g id="Symbols" stroke="none" stroke-width="1" fill="none" fill-rule="evenodd">
        <g id="Footers/Footer-#3" transform="translate(-1229.000000, -44.000000)" fill="#FFFFFF">
            <g id="top" transform="translate(1229.000000, 44.000000)">
                <path d="M141.405853,9.52009237 C141.531382,9.6426203 141.531382,9.84157028 141.405853,9.96409821 L140.951294,10.4081041 C140.825765,10.530632 140.622265,10.530632 140.496735,10.4081041 L136.227118,6.23773339 C136.101912,6.11520546 135.898088,6.11520546 135.772559,6.23773339 L131.503265,10.4081041 C131.377735,10.530632 131.174235,10.530632 131.048706,10.4081041 L130.594147,9.96409821 C130.468618,9.84157028 130.468618,9.6426203 130.594147,9.52009237 L135.545441,4.68402874 C135.7965,4.43865709 136.2035,4.43865709 136.454559,4.68402874 L141.405853,9.52009237 Z" id="Icon" opacity="0.8"></path>
                <path d="M0.456,1.16 L4.376,1.16 C4.98400304,1.16 5.54933072,1.20799952 6.072,1.304 C6.59466928,1.40000048 7.04799808,1.55999888 7.432,1.784 C7.81600192,2.00800112 8.11733224,2.3066648 8.336,2.68 C8.55466776,3.0533352 8.664,3.51733056 8.664,4.072 C8.664,4.34933472 8.62666704,4.621332 8.552,4.888 C8.47733296,5.154668 8.37066736,5.40266552 8.232,5.632 C8.09333264,5.86133448 7.92533432,6.06399912 7.728,6.24 C7.53066568,6.41600088 7.30400128,6.54666624 7.048,6.632 L7.048,6.712 C7.6880032,6.86133408 8.21866456,7.16533104 8.64,7.624 C9.06133544,8.08266896 9.272,8.711996 9.272,9.512 C9.272,10.1093363 9.15466784,10.6266645 8.92,11.064 C8.68533216,11.5013355 8.36266872,11.8639986 7.952,12.152 C7.54133128,12.4400014 7.0560028,12.6533326 6.496,12.792 C5.9359972,12.9306674 5.33066992,13 4.68,13 L0.456,13 L0.456,1.16 Z M4.2,5.976 C4.95733712,5.976 5.50666496,5.83733472 5.848,5.56 C6.18933504,5.28266528 6.36,4.9040024 6.36,4.424 C6.36,3.90133072 6.18400176,3.52800112 5.832,3.304 C5.47999824,3.07999888 4.94667024,2.968 4.232,2.968 L2.824,2.968 L2.824,5.976 L4.2,5.976 Z M4.472,11.176 C5.28267072,11.176 5.9013312,11.0293348 6.328,10.736 C6.7546688,10.4426652 6.968,9.98666976 6.968,9.368 C6.968,8.79199712 6.75733544,8.37600128 6.336,8.12 C5.91466456,7.86399872 5.29333744,7.736 4.472,7.736 L2.824,7.736 L2.824,11.176 L4.472,11.176 Z M13.368,13.16 C12.9626646,13.16 12.597335,13.0986673 12.272,12.976 C11.946665,12.8533327 11.6693345,12.6773345 11.44,12.448 C11.2106655,12.2186655 11.0320006,11.9440016 10.904,11.624 C10.7759994,11.3039984 10.712,10.9520019 10.712,10.568 C10.6586664,9.46932784 11.0399959,8.65600264 11.856,8.128 C12.6720041,7.59999736 14.0079907,7.3093336 15.864,7.256 C15.9066669,6.78666432 15.8346676,6.41066808 15.648,6.128 C15.4613324,5.84533192 15.0266701,5.704 14.344,5.704 C13.9279979,5.704 13.4933356,5.77866592 13.04,5.928 C12.5866644,6.07733408 12.1573354,6.285332 11.752,6.552 L11.048,4.872 C11.5386691,4.57333184 12.1066634,4.32266768 12.752,4.12 C13.3973366,3.91733232 14.0719965,3.816 14.776,3.816 C15.917339,3.816 16.7759971,4.14933 17.352,4.816 C17.9280029,5.48267 18.216,6.46666016 18.216,7.768 L18.216,13 L16.296,13 L16.12,12.088 L16.072,12.088 C15.6879981,12.4186683 15.2693356,12.679999 14.816,12.872 C14.3626644,13.064001 13.8800026,13.16 13.368,13.16 Z M14.088,11.368 C14.429335,11.3573333 14.7413319,11.2800007 15.024,11.136 C15.3066681,10.9919993 15.5866653,10.7813347 15.864,10.504 L15.864,8.696 C15.2986638,8.73866688 14.7600026,8.79733296 14.248,8.872 C13.7359974,8.94666704 13.376001,9.10133216 13.168,9.336 C12.959999,9.57066784 12.8613333,9.8479984 12.872,10.168 C12.8826667,10.5413352 13.0026655,10.8346656 13.232,11.048 C13.4613345,11.2613344 13.746665,11.368 14.088,11.368 Z M24.424,13.224 C23.8053302,13.224 23.229336,13.1173344 22.696,12.904 C22.162664,12.6906656 21.7013353,12.384002 21.312,11.984 C20.9226647,11.583998 20.6160011,11.0933362 20.392,10.512 C20.1679989,9.93066376 20.056,9.27200368 20.056,8.536 C20.056,7.7893296 20.1813321,7.1226696 20.432,6.536 C20.6826679,5.9493304 21.0159979,5.456002 21.432,5.056 C21.8480021,4.655998 22.3333306,4.3493344 22.888,4.136 C23.4426694,3.9226656 24.023997,3.816 24.632,3.816 C25.1866694,3.816 25.6773312,3.91199904 26.104,4.104 C26.5306688,4.29600096 26.9093317,4.53066528 27.24,4.808 L26.12,6.328 C25.8959989,6.13599904 25.6746678,5.98933384 25.456,5.888 C25.2373322,5.78666616 25.0000013,5.736 24.744,5.736 C24.0613299,5.736 23.5093354,5.9893308 23.088,6.496 C22.6666646,7.0026692 22.456,7.6826624 22.456,8.536 C22.456,9.37867088 22.6639979,10.0506642 23.08,10.552 C23.4960021,11.0533358 24.0293301,11.304 24.68,11.304 C25.0000016,11.304 25.3093318,11.237334 25.608,11.104 C25.9066682,10.970666 26.1786654,10.7973344 26.424,10.584 L27.352,12.136 C26.9253312,12.5093352 26.4560026,12.7839991 25.944,12.96 C25.4319974,13.1360009 24.9253358,13.224 24.424,13.224 Z M29.048,0.232 L31.336,0.232 L31.336,7.912 L31.4,7.912 L34.504,4.04 L37.064,4.04 L33.96,7.704 L37.352,13 L34.808,13 L32.632,9.288 L31.336,10.76 L31.336,13 L29.048,13 L29.048,0.232 Z M45.64,13.224 C45.106664,13.224 44.6533352,13.1440008 44.28,12.984 C43.9066648,12.8239992 43.6026678,12.5973348 43.368,12.304 C43.1333322,12.0106652 42.9626672,11.6560021 42.856,11.24 C42.7493328,10.8239979 42.696,10.3653358 42.696,9.864 L42.696,5.896 L41.432,5.896 L41.432,4.152 L42.808,4.04 L43.08,1.64 L45.048,1.64 L45.048,4.04 L47.256,4.04 L47.256,5.896 L45.048,5.896 L45.048,9.864 C45.048,10.8666717 45.4533293,11.368 46.264,11.368 C46.4133341,11.368 46.5679992,11.3493335 46.728,11.312 C46.8880008,11.2746665 47.0266661,11.2293336 47.144,11.176 L47.528,12.888 C47.2826654,12.9733338 47.0053349,13.0506663 46.696,13.12 C46.3866651,13.1893337 46.0346686,13.224 45.64,13.224 Z M52.824,13.224 C52.2586638,13.224 51.7173359,13.1173344 51.2,12.904 C50.6826641,12.6906656 50.2266686,12.384002 49.832,11.984 C49.4373314,11.583998 49.1200012,11.0933362 48.88,10.512 C48.6399988,9.93066376 48.52,9.27200368 48.52,8.536 C48.52,7.7893296 48.6399988,7.1226696 48.88,6.536 C49.1200012,5.9493304 49.4373314,5.456002 49.832,5.056 C50.2266686,4.655998 50.6826641,4.3493344 51.2,4.136 C51.7173359,3.9226656 52.2586638,3.816 52.824,3.816 C53.3786694,3.816 53.9173307,3.9226656 54.44,4.136 C54.9626693,4.3493344 55.4213314,4.655998 55.816,5.056 C56.2106686,5.456002 56.5279988,5.9493304 56.768,6.536 C57.0080012,7.1226696 57.128,7.7893296 57.128,8.536 C57.128,9.27200368 57.0080012,9.93066376 56.768,10.512 C56.5279988,11.0933362 56.2106686,11.583998 55.816,11.984 C55.4213314,12.384002 54.9626693,12.6906656 54.44,12.904 C53.9173307,13.1173344 53.3786694,13.224 52.824,13.224 Z M52.824,11.304 C53.432003,11.304 53.9013317,11.0533358 54.232,10.552 C54.5626683,10.0506642 54.728,9.37867088 54.728,8.536 C54.728,7.6826624 54.5626683,7.0026692 54.232,6.496 C53.9013317,5.9893308 53.432003,5.736 52.824,5.736 C52.215997,5.736 51.7466683,5.9893308 51.416,6.496 C51.0853317,7.0026692 50.92,7.6826624 50.92,8.536 C50.92,9.37867088 51.0853317,10.0506642 51.416,10.552 C51.7466683,11.0533358 52.215997,11.304 52.824,11.304 Z M66.008,13.224 C65.474664,13.224 65.0213352,13.1440008 64.648,12.984 C64.2746648,12.8239992 63.9706678,12.5973348 63.736,12.304 C63.5013322,12.0106652 63.3306672,11.6560021 63.224,11.24 C63.1173328,10.8239979 63.064,10.3653358 63.064,9.864 L63.064,5.896 L61.8,5.896 L61.8,4.152 L63.176,4.04 L63.448,1.64 L65.416,1.64 L65.416,4.04 L67.624,4.04 L67.624,5.896 L65.416,5.896 L65.416,9.864 C65.416,10.8666717 65.8213293,11.368 66.632,11.368 C66.7813341,11.368 66.9359992,11.3493335 67.096,11.312 C67.2560008,11.2746665 67.3946661,11.2293336 67.512,11.176 L67.896,12.888 C67.6506654,12.9733338 67.3733349,13.0506663 67.064,13.12 C66.7546651,13.1893337 66.4026686,13.224 66.008,13.224 Z M69.448,0.232 L71.784,0.232 L71.784,3.448 L71.688,5.128 C72.0506685,4.78666496 72.4586644,4.482668 72.912,4.216 C73.3653356,3.949332 73.895997,3.816 74.504,3.816 C75.4746715,3.816 76.1786645,4.13333016 76.616,4.768 C77.0533355,5.40266984 77.272,6.28532768 77.272,7.416 L77.272,13 L74.92,13 L74.92,7.704 C74.92,7.0106632 74.8213343,6.52533472 74.624,6.248 C74.4266657,5.97066528 74.1040022,5.832 73.656,5.832 C73.2826648,5.832 72.962668,5.91733248 72.696,6.088 C72.429332,6.25866752 72.125335,6.50933168 71.784,6.84 L71.784,13 L69.448,13 L69.448,0.232 Z M83.576,13.224 C82.9466635,13.224 82.3626694,13.1173344 81.824,12.904 C81.2853306,12.6906656 80.816002,12.384002 80.416,11.984 C80.015998,11.583998 79.7013345,11.0933362 79.472,10.512 C79.2426655,9.93066376 79.128,9.27200368 79.128,8.536 C79.128,7.81066304 79.2453322,7.15733624 79.48,6.576 C79.7146678,5.99466376 80.0266647,5.49866872 80.416,5.088 C80.8053353,4.67733128 81.2506642,4.36266776 81.752,4.144 C82.2533358,3.92533224 82.770664,3.816 83.304,3.816 C83.9226698,3.816 84.4639977,3.9226656 84.928,4.136 C85.3920023,4.3493344 85.7813318,4.64799808 86.096,5.032 C86.4106682,5.41600192 86.6479992,5.86933072 86.808,6.392 C86.9680008,6.91466928 87.048,7.48533024 87.048,8.104 C87.048,8.3173344 87.0373334,8.52266568 87.016,8.72 C86.9946666,8.91733432 86.9680002,9.0693328 86.936,9.176 L81.416,9.176 C81.5120005,9.91200368 81.7813311,10.4693314 82.224,10.848 C82.6666689,11.2266686 83.2239966,11.416 83.896,11.416 C84.2693352,11.416 84.618665,11.3626672 84.944,11.256 C85.269335,11.1493328 85.5919984,10.9946677 85.912,10.792 L86.712,12.232 C86.2639978,12.5413349 85.7706694,12.7839991 85.232,12.96 C84.6933306,13.1360009 84.1413362,13.224 83.576,13.224 Z M85.032,7.624 C85.032,7.01599696 84.8933347,6.53333512 84.616,6.176 C84.3386653,5.81866488 83.9120029,5.64 83.336,5.64 C82.8666643,5.64 82.4453352,5.80799832 82.072,6.144 C81.6986648,6.48000168 81.4693338,6.97333008 81.384,7.624 L85.032,7.624 Z M95.896,13.224 C95.362664,13.224 94.9093352,13.1440008 94.536,12.984 C94.1626648,12.8239992 93.8586678,12.5973348 93.624,12.304 C93.3893322,12.0106652 93.2186672,11.6560021 93.112,11.24 C93.0053328,10.8239979 92.952,10.3653358 92.952,9.864 L92.952,5.896 L91.688,5.896 L91.688,4.152 L93.064,4.04 L93.336,1.64 L95.304,1.64 L95.304,4.04 L97.512,4.04 L97.512,5.896 L95.304,5.896 L95.304,9.864 C95.304,10.8666717 95.7093293,11.368 96.52,11.368 C96.6693341,11.368 96.8239992,11.3493335 96.984,11.312 C97.1440008,11.2746665 97.2826661,11.2293336 97.4,11.176 L97.784,12.888 C97.5386654,12.9733338 97.2613349,13.0506663 96.952,13.12 C96.6426651,13.1893337 96.2906686,13.224 95.896,13.224 Z M103.08,13.224 C102.514664,13.224 101.973336,13.1173344 101.456,12.904 C100.938664,12.6906656 100.482669,12.384002 100.088,11.984 C99.6933314,11.583998 99.3760012,11.0933362 99.136,10.512 C98.8959988,9.93066376 98.776,9.27200368 98.776,8.536 C98.776,7.7893296 98.8959988,7.1226696 99.136,6.536 C99.3760012,5.9493304 99.6933314,5.456002 100.088,5.056 C100.482669,4.655998 100.938664,4.3493344 101.456,4.136 C101.973336,3.9226656 102.514664,3.816 103.08,3.816 C103.634669,3.816 104.173331,3.9226656 104.696,4.136 C105.218669,4.3493344 105.677331,4.655998 106.072,5.056 C106.466669,5.456002 106.783999,5.9493304 107.024,6.536 C107.264001,7.1226696 107.384,7.7893296 107.384,8.536 C107.384,9.27200368 107.264001,9.93066376 107.024,10.512 C106.783999,11.0933362 106.466669,11.583998 106.072,11.984 C105.677331,12.384002 105.218669,12.6906656 104.696,12.904 C104.173331,13.1173344 103.634669,13.224 103.08,13.224 Z M103.08,11.304 C103.688003,11.304 104.157332,11.0533358 104.488,10.552 C104.818668,10.0506642 104.984,9.37867088 104.984,8.536 C104.984,7.6826624 104.818668,7.0026692 104.488,6.496 C104.157332,5.9893308 103.688003,5.736 103.08,5.736 C102.471997,5.736 102.002668,5.9893308 101.672,6.496 C101.341332,7.0026692 101.176,7.6826624 101.176,8.536 C101.176,9.37867088 101.341332,10.0506642 101.672,10.552 C102.002668,11.0533358 102.471997,11.304 103.08,11.304 Z M109.352,4.04 L111.272,4.04 L111.432,4.968 L111.496,4.968 C111.869335,4.6479984 112.282664,4.37600112 112.736,4.152 C113.189336,3.92799888 113.655998,3.816 114.136,3.816 C114.690669,3.816 115.183998,3.92533224 115.616,4.144 C116.048002,4.36266776 116.415998,4.66933136 116.72,5.064 C117.024002,5.45866864 117.255999,5.93866384 117.416,6.504 C117.576001,7.06933616 117.656,7.69332992 117.656,8.376 C117.656,9.14400384 117.549334,9.82933032 117.336,10.432 C117.122666,11.0346697 116.840002,11.5413313 116.488,11.952 C116.135998,12.3626687 115.730669,12.6773322 115.272,12.896 C114.813331,13.1146678 114.338669,13.224 113.848,13.224 C113.453331,13.224 113.069335,13.1386675 112.696,12.968 C112.322665,12.7973325 111.965335,12.5573349 111.624,12.248 L111.688,13.72 L111.688,16.44 L109.352,16.44 L109.352,4.04 Z M113.32,11.288 C113.864003,11.288 114.319998,11.0533357 114.688,10.584 C115.056002,10.1146643 115.24,9.38933824 115.24,8.408 C115.24,7.54399568 115.098668,6.8853356 114.816,6.432 C114.533332,5.9786644 114.08267,5.752 113.464,5.752 C113.154665,5.752 112.858668,5.82933256 112.576,5.984 C112.293332,6.13866744 111.997335,6.37066512 111.688,6.68 L111.688,10.616 C111.976001,10.8613346 112.258665,11.0346662 112.536,11.136 C112.813335,11.2373338 113.074665,11.288 113.32,11.288 Z" id="Back-to-the-top"></path>
            </g>
        </g>
    </g>
</svg>